<?xml version="1.0" standalone="no"?>
<!DOCTYPE svg PUBLIC "-//W3C//DTD SVG 20010904//EN"
 "http://www.w3.org/TR/2001/REC-SVG-20010904/DTD/svg10.dtd">
<svg version="1.0" xmlns="http://www.w3.org/2000/svg"
 width="256.000000pt" height="256.000000pt" viewBox="0 0 256.000000 256.000000"
 preserveAspectRatio="xMidYMid meet">
<metadata>
Created by potrace 1.14, written by Peter Selinger 2001-2017
</metadata>
<g transform="translate(0.000000,256.000000) scale(0.100000,-0.100000)"
fill="#000000" stroke="none">
<path d="M1155 2550 c-12 -4 -27 -15 -34 -23 -11 -14 -64 -175 -76 -231 -9
-38 -37 -116 -44 -120 -13 -8 -66 26 -191 122 -72 55 -130 92 -144 92 -13 0
-41 -12 -62 -26 -190 -129 -201 -143 -175 -219 10 -28 37 -105 60 -173 36
-102 41 -125 30 -138 -11 -13 -37 -15 -190 -10 -223 7 -213 12 -265 -151 -27
-88 -34 -124 -28 -142 10 -28 38 -50 197 -159 73 -49 107 -78 107 -91 0 -14
-38 -45 -122 -103 -139 -95 -188 -138 -188 -165 0 -11 16 -69 35 -129 51 -159
43 -155 263 -148 157 5 180 4 192 -11 11 -14 5 -39 -46 -179 -71 -194 -71
-206 9 -264 111 -82 160 -112 183 -112 17 0 165 98 194 130 30 32 120 89 133
84 10 -3 27 -40 42 -90 14 -46 36 -122 50 -168 36 -117 41 -121 187 -123 158
-2 182 9 208 105 12 47 17 50 51 23 50 -38 157 -83 237 -98 67 -13 224 -7 287
11 291 84 478 336 470 632 -2 100 -5 119 -26 181 -8 25 -8 42 1 66 6 18 14 43
16 57 3 13 7 26 9 28 2 2 -1 17 -7 32 -7 21 -42 51 -125 107 -161 109 -165
112 -161 136 2 15 46 50 136 112 137 93 151 106 154 147 3 39 -71 249 -95 268
-19 16 -41 17 -199 14 -166 -4 -177 -4 -182 14 -4 11 15 80 46 163 49 137 63
212 42 228 -5 3 -54 39 -108 79 -102 76 -136 88 -175 61 -10 -8 -74 -56 -141
-107 -103 -78 -124 -90 -141 -82 -10 6 -19 16 -19 22 0 7 -21 81 -47 166 -58
191 -53 186 -212 189 -64 1 -125 -2 -136 -7z m282 -826 c159 -54 286 -211 308
-382 l6 -49 -71 -23 c-40 -13 -87 -34 -106 -47 -19 -12 -38 -23 -42 -23 -5 0
-36 -26 -70 -57 -87 -78 -157 -189 -190 -298 -6 -21 -16 -31 -33 -34 -28 -4
-128 19 -135 31 -3 4 -12 8 -20 8 -9 0 -35 14 -60 30 -141 97 -215 230 -217
385 -1 107 5 136 48 222 77 156 209 246 385 262 78 7 117 2 197 -25z"/>
</g>
</svg>
